<?xml version="1.0" standalone="no"?>
<!DOCTYPE svg PUBLIC "-//W3C//DTD SVG 20010904//EN"
 "http://www.w3.org/TR/2001/REC-SVG-20010904/DTD/svg10.dtd">
<svg version="1.0" xmlns="http://www.w3.org/2000/svg"
 width="64.000000pt" height="64.000000pt" viewBox="0 0 64.000000 64.000000"
 preserveAspectRatio="xMidYMid meet">

<g transform="translate(0.000000,64.000000) scale(0.100000,-0.100000)"
fill="#ffffff" stroke="none">
<path d="M0 320 l0 -320 320 0 320 0 0 320 0 320 -320 0 -320 0 0 -320z m445
118 l120 -123 -122 120 -123 120 -67 -65 -68 -65 65 68 c35 37 67 67 70 67 3
0 59 -55 125 -122z m-20 -40 c-4 -13 -12 -27 -17 -33 -6 -6 -7 -3 -2 9 5 14 4
17 -5 12 -6 -4 -11 -15 -9 -24 1 -10 -3 -27 -10 -39 -15 -27 1 -41 26 -22 9 7
7 2 -6 -12 -22 -23 -24 -23 -37 -5 -15 20 -9 47 26 103 24 38 44 44 34 11z
m-125 -69 c-6 -10 -8 -19 -4 -19 3 0 1 -7 -6 -15 -19 -22 -32 -18 -20 6 7 11
9 23 6 26 -9 9 15 34 25 27 5 -3 5 -14 -1 -25z m-46 10 c-4 -7 -7 -21 -8 -32
-1 -24 -26 -36 -26 -12 0 22 18 55 31 55 6 0 7 -5 3 -11z m96 3 c0 -4 -6 -14
-12 -20 -10 -10 -10 -15 1 -21 11 -7 10 -11 -7 -20 -17 -9 -20 -7 -24 14 -3
14 2 30 11 39 17 17 31 21 31 8z m42 -187 l73 70 -73 -75 -72 -75 -123 125
-122 125 122 -120 123 -120 72 70z"/>
</g>
</svg>
